<?xml version="1.0" encoding="UTF-8" standalone="no"?>
<svg
   xmlns:dc="http://purl.org/dc/elements/1.1/"
   xmlns:cc="http://creativecommons.org/ns#"
   xmlns:rdf="http://www.w3.org/1999/02/22-rdf-syntax-ns#"
   xmlns:svg="http://www.w3.org/2000/svg"
   xmlns="http://www.w3.org/2000/svg"
   xmlns:sodipodi="http://sodipodi.sourceforge.net/DTD/sodipodi-0.dtd"
   xmlns:inkscape="http://www.inkscape.org/namespaces/inkscape"
   version="1.1"
   x="0px"
   y="0px"
   width="32"
   height="96"
   enable-background="new 0 0 100 100"
   xml:space="preserve"
   id="svg2"
   inkscape:version="0.91 r13725"
   sodipodi:docname="star_stroke.svg"><metadata
     id="metadata10"><rdf:RDF><cc:Work
         rdf:about=""><dc:format>image/svg+xml</dc:format><dc:type
           rdf:resource="http://purl.org/dc/dcmitype/StillImage" /><dc:title></dc:title></cc:Work></rdf:RDF></metadata><defs
     id="defs8" /><sodipodi:namedview
     pagecolor="#ffffff"
     bordercolor="#666666"
     borderopacity="1"
     objecttolerance="10"
     gridtolerance="10"
     guidetolerance="10"
     inkscape:pageopacity="0"
     inkscape:pageshadow="2"
     inkscape:window-width="1920"
     inkscape:window-height="1018"
     id="namedview6"
     showgrid="false"
     inkscape:zoom="3.337544"
     inkscape:cx="5.3563939"
     inkscape:cy="39.043278"
     inkscape:window-x="-8"
     inkscape:window-y="-8"
     inkscape:window-maximized="1"
     inkscape:current-layer="svg2" /><path
     d="M 25.88832,32 16,24.44565 6.11168,32 9.8886397,19.777175 0,12.222825 l 12.22272,0 L 16,0 l 3.77728,12.222825 12.22272,0 -9.88832,7.55435 L 25.88832,32 l 0,0 z M 16,22.780813 l 7.45152,5.692343 -2.84608,-9.210439 7.45152,-5.692679 -9.21056,0 L 16,4.3592623 l -2.8464,9.2107757 -9.21056,0 7.45152,5.692679 -2.8464,9.210439 L 16,22.780813 l 0,0 z"
     id="path4"
     inkscape:connector-curvature="0"
     style="fill:#666666;fill-opacity:1" /><polygon
     id="polygon3340"
     points="19.098,95.105 30.902,58.778 0,36.327 38.197,36.327 50,0 61.803,36.327 100,36.327 69.098,58.778 80.902,95.105 50,72.654 "
     transform="matrix(0.32,0,0,0.33647022,0,32)"
     style="fill:#666666;fill-opacity:1" /><polygon
     transform="matrix(0.32,0,0,0.33647022,0,64)"
     points="30.902,58.778 0,36.327 38.197,36.327 50,0 61.803,36.327 100,36.327 69.098,58.778 80.902,95.105 50,72.654 19.098,95.105 "
     id="polygon3349"
     style="fill:#222222;fill-opacity:1" /></svg>