<?xml version="1.0" encoding="UTF-8" standalone="no"?>
<svg
   xmlns:dc="http://purl.org/dc/elements/1.1/"
   xmlns:cc="http://creativecommons.org/ns#"
   xmlns:rdf="http://www.w3.org/1999/02/22-rdf-syntax-ns#"
   xmlns:svg="http://www.w3.org/2000/svg"
   xmlns="http://www.w3.org/2000/svg"
   xmlns:sodipodi="http://sodipodi.sourceforge.net/DTD/sodipodi-0.dtd"
   xmlns:inkscape="http://www.inkscape.org/namespaces/inkscape"
   version="1.1"
   x="0px"
   y="0px"
   width="16"
   height="48"
   enable-background="new 0 0 100 100"
   xml:space="preserve"
   id="svg2"
   inkscape:version="0.92.2 (5c3e80d, 2017-08-06)"
   sodipodi:docname="stars.svg"><metadata
     id="metadata10"><rdf:RDF><cc:Work
         rdf:about=""><dc:format>image/svg+xml</dc:format><dc:type
           rdf:resource="http://purl.org/dc/dcmitype/StillImage" /><dc:title></dc:title></cc:Work></rdf:RDF></metadata><defs
     id="defs8" /><sodipodi:namedview
     pagecolor="#ffffff"
     bordercolor="#666666"
     borderopacity="1"
     objecttolerance="10"
     gridtolerance="10"
     guidetolerance="10"
     inkscape:pageopacity="0"
     inkscape:pageshadow="2"
     inkscape:window-width="1920"
     inkscape:window-height="1017"
     id="namedview6"
     showgrid="false"
     inkscape:zoom="3.337544"
     inkscape:cx="-43.332103"
     inkscape:cy="3.0281389"
     inkscape:window-x="-8"
     inkscape:window-y="-8"
     inkscape:window-maximized="1"
     inkscape:current-layer="svg2"
     fit-margin-top="0"
     fit-margin-left="0"
     fit-margin-right="0"
     fit-margin-bottom="0" /><path
     d="M 12.94416,16 8,12.222825 3.05584,16 4.9443198,9.888587 0,6.111412 H 6.11136 L 8,0 9.88864,6.111412 H 16 L 11.05584,9.888587 Z M 8,11.390406 11.72576,14.236578 10.30272,9.631358 14.02848,6.785019 H 9.4232 L 8,2.179631 6.5768,6.785019 H 1.97152 l 3.72576,2.846339 -1.4232,4.60522 z"
     id="path4"
     inkscape:connector-curvature="0"
     style="fill:#666666;fill-opacity:1;stroke-width:0.5" /><polygon
     id="polygon3340"
     points="50,0 61.803,36.327 100,36.327 69.098,58.778 80.902,95.105 50,72.654 19.098,95.105 30.902,58.778 0,36.327 38.197,36.327 "
     transform="matrix(0.16,0,0,0.16823511,0,16)"
     style="fill:#666666;fill-opacity:1" /><polygon
     transform="matrix(0.16,0,0,0.16823511,0,32)"
     points="69.098,58.778 80.902,95.105 50,72.654 19.098,95.105 30.902,58.778 0,36.327 38.197,36.327 50,0 61.803,36.327 100,36.327 "
     id="polygon3349"
     style="fill:#222222;fill-opacity:1" /></svg>