<?xml version="1.0" encoding="UTF-8" standalone="no"?>
<svg id="svg2" xmlns:rdf="http://www.w3.org/1999/02/22-rdf-syntax-ns#" xmlns="http://www.w3.org/2000/svg" xml:space="preserve" height="270" width="100" version="1.1" y="0px" x="0px" xmlns:cc="http://creativecommons.org/ns#" xmlns:dc="http://purl.org/dc/elements/1.1/" enable-background="new 0 0 100 100"><metadata id="metadata10"><rdf:RDF><cc:Work rdf:about=""><dc:format>image/svg+xml</dc:format><dc:type rdf:resource="http://purl.org/dc/dcmitype/StillImage"/><dc:title/></cc:Work></rdf:RDF></metadata><path id="path4" stroke-linejoin="round" d="m95.917 71.297c-2.375 5.9001-7.1401 10.862-13.733 13.935-5.8274 2.717-12.106 3.0435-17.814 1.3835-5.7054-1.66-10.836-6.1842-14.371-11.414-3.5334 5.23-8.6644 9.7542-14.37 11.414-5.7054 1.66-11.986 1.3335-17.814-1.3835-6.591-3.071-11.356-8.034-13.732-13.934-2.3754-5.901-2.3859-12.751 0.6074-19.564 6.4036-14.572 45.107-48.774 45.309-49.359 0.20292 0.58416 38.906 34.786 45.309 49.359 2.9951 6.8136 2.9837 13.663 0.60874 19.563z" stroke="#666" stroke-width="4.7498" fill="none"/><path id="path4-4" d="m98.199 162.76c-2.493 6.2286-7.495 11.467-14.416 14.711-6.117 2.8682-12.708 3.213-18.699 1.4605-5.989-1.7524-11.375-6.5285-15.085-12.05-3.709 5.5213-9.0949 10.297-15.084 12.05-5.989 1.7524-12.582 1.4077-18.699-1.4605-6.92-3.2428-11.922-8.4821-14.416-14.711-2.493-6.2286-2.504-13.46 0.638-20.652 6.722-15.384 47.348-51.491 47.561-52.107 0.213 0.61668 40.84 36.723 47.561 52.107 3.144 7.193 3.132 14.424 0.639 20.652z" fill="#666"/><path id="path4-7" d="m98.199 252.76c-2.493 6.2286-7.495 11.467-14.416 14.711-6.117 2.8682-12.708 3.2129-18.699 1.4605-5.989-1.7524-11.375-6.5285-15.085-12.05-3.709 5.5213-9.0949 10.297-15.084 12.05-5.989 1.7524-12.582 1.4077-18.699-1.4605-6.9194-3.24-11.921-8.48-14.415-14.71-2.4933-6.23-2.5043-13.46 0.6377-20.65 6.7219-15.39 47.347-51.49 47.56-52.11 0.213 0.61668 40.84 36.723 47.561 52.107 3.144 7.193 3.132 14.424 0.639 20.652z"/></svg>
