<?xml version="1.0" encoding="UTF-8" standalone="no"?>
<svg id="svg2" xmlns:rdf="http://www.w3.org/1999/02/22-rdf-syntax-ns#" xmlns="http://www.w3.org/2000/svg" xml:space="preserve" height="270" width="100" version="1.1" y="0px" x="0px" xmlns:cc="http://creativecommons.org/ns#" xmlns:dc="http://purl.org/dc/elements/1.1/" enable-background="new 0 0 100 100"><metadata id="metadata10"><rdf:RDF><cc:Work rdf:about=""><dc:format>image/svg+xml</dc:format><dc:type rdf:resource="http://purl.org/dc/dcmitype/StillImage"/><dc:title/></cc:Work></rdf:RDF></metadata><path id="path4" stroke-linejoin="round" d="m95.917 18.703c-2.375-5.9-7.14-10.862-13.733-13.934-5.828-2.7174-12.107-3.0439-17.814-1.3839-5.7054 1.66-10.836 6.1842-14.371 11.414-3.5334-5.23-8.6644-9.7542-14.37-11.414-5.7054-1.66-11.986-1.3335-17.814 1.3835-6.5924 3.0718-11.358 8.0348-13.733 13.935-2.375 5.9001-2.3854 12.75 0.60779 19.563 6.4037 14.573 45.106 48.775 45.309 49.359 0.20292-0.58416 38.906-34.786 45.309-49.359 2.9951-6.8136 2.9837-13.663 0.60874-19.563z" stroke="#666" stroke-miterlimit="3.1" stroke-width="4.7498" fill="none"/><path id="path4-6" d="m98.199 108.05c-2.493-6.16-7.495-11.341-14.416-14.549-6.117-2.836-12.708-3.177-18.699-1.444-5.989 1.733-11.375 6.456-15.085 11.913-3.709-5.457-9.095-10.18-15.084-11.913s-12.581-1.392-18.698 1.444c-6.9204 3.207-11.922 8.389-14.416 14.549-2.493 6.1594-2.504 13.311 0.638 20.423 6.722 15.213 47.348 50.918 47.561 51.528 0.213-0.60984 40.84-36.315 47.561-51.528 3.144-7.1131 3.132-14.264 0.639-20.423z" fill="#666"/><path id="path4-7" d="m98.199 198.05c-2.493-6.1594-7.495-11.34-14.416-14.547-6.117-2.8364-12.708-3.1772-18.699-1.4443-5.989 1.7329-11.375 6.4559-15.085 11.916-3.709-5.4599-9.0949-10.183-15.084-11.916-5.989-1.733-12.582-1.3921-18.699 1.4443-6.92 3.2068-11.922 8.3879-14.416 14.547-2.493 6.1594-2.504 13.311 0.638 20.423 6.722 15.213 47.348 50.918 47.561 51.528 0.213-0.60984 40.84-36.315 47.561-51.528 3.144-7.113 3.132-14.264 0.639-20.423z"/></svg>
