<?xml version="1.0" encoding="UTF-8" standalone="no"?>
<svg
   xmlns:dc="http://purl.org/dc/elements/1.1/"
   xmlns:cc="http://creativecommons.org/ns#"
   xmlns:rdf="http://www.w3.org/1999/02/22-rdf-syntax-ns#"
   xmlns:svg="http://www.w3.org/2000/svg"
   xmlns="http://www.w3.org/2000/svg"
   xmlns:sodipodi="http://sodipodi.sourceforge.net/DTD/sodipodi-0.dtd"
   xmlns:inkscape="http://www.inkscape.org/namespaces/inkscape"
   id="svg2"
   xml:space="preserve"
   height="88.998917"
   width="100"
   version="1.1"
   y="0px"
   x="0px"
   enable-background="new 0 0 100 100"
   sodipodi:docname="like.svg"
   inkscape:version="0.92.2 (5c3e80d, 2017-08-06)"><defs
     id="defs9" /><sodipodi:namedview
     pagecolor="#ffffff"
     bordercolor="#666666"
     borderopacity="1"
     objecttolerance="10"
     gridtolerance="10"
     guidetolerance="10"
     inkscape:pageopacity="0"
     inkscape:pageshadow="2"
     inkscape:window-width="1920"
     inkscape:window-height="1017"
     id="namedview7"
     showgrid="false"
     fit-margin-top="0"
     fit-margin-left="0"
     fit-margin-right="0"
     fit-margin-bottom="0"
     inkscape:zoom="0.87407407"
     inkscape:cx="50"
     inkscape:cy="135"
     inkscape:window-x="-8"
     inkscape:window-y="-8"
     inkscape:window-maximized="1"
     inkscape:current-layer="svg2" /><metadata
     id="metadata10"><rdf:RDF><cc:Work
         rdf:about=""><dc:format>image/svg+xml</dc:format><dc:type
           rdf:resource="http://purl.org/dc/dcmitype/StillImage" /><dc:title></dc:title></cc:Work></rdf:RDF></metadata><path
     id="path4-7"
     d="M 98.199083,17.048358 C 95.706098,10.888988 90.704129,5.7084279 83.783171,2.5014479 77.666208,-0.33494212 71.075248,-0.67573212 65.084284,1.0571479 59.095321,2.7900379 53.709354,7.5130179 49.999376,12.973078 46.290399,7.5132179 40.904531,2.7901379 34.915468,1.0571479 28.926504,-0.67583212 22.333544,-0.33494212 16.216581,2.5014479 9.2966235,5.7082279 4.2946539,10.889288 1.8006691,17.048358 c -2.49298485,6.15936 -2.50398479,13.31092 0.6379961,20.42287 6.7219591,15.21291 47.3477118,50.91769 47.5607108,51.52769 0.212999,-0.60984 40.839752,-36.31478 47.560711,-51.52769 3.143983,-7.11295 3.131983,-14.26391 0.638996,-20.42287 z"
     inkscape:connector-curvature="0"
     style="stroke-width:0.99999392" /></svg>