<?xml version="1.0" encoding="UTF-8" standalone="no"?>
<svg
   xmlns:dc="http://purl.org/dc/elements/1.1/"
   xmlns:cc="http://creativecommons.org/ns#"
   xmlns:rdf="http://www.w3.org/1999/02/22-rdf-syntax-ns#"
   xmlns:svg="http://www.w3.org/2000/svg"
   xmlns="http://www.w3.org/2000/svg"
   xmlns:sodipodi="http://sodipodi.sourceforge.net/DTD/sodipodi-0.dtd"
   xmlns:inkscape="http://www.inkscape.org/namespaces/inkscape"
   height="100"
   width="100"
   version="1"
   viewBox="25 -50 500 675"
   id="svg12"
   sodipodi:docname="logo.svg"
   inkscape:version="0.92.2 (5c3e80d, 2017-08-06)">
  <metadata
     id="metadata18">
    <rdf:RDF>
      <cc:Work
         rdf:about="">
        <dc:format>image/svg+xml</dc:format>
        <dc:type
           rdf:resource="http://purl.org/dc/dcmitype/StillImage" />
      </cc:Work>
    </rdf:RDF>
  </metadata>
  <defs
     id="defs16" />
  <sodipodi:namedview
     pagecolor="#ffffff"
     bordercolor="#666666"
     borderopacity="1"
     objecttolerance="10"
     gridtolerance="10"
     guidetolerance="10"
     inkscape:pageopacity="0"
     inkscape:pageshadow="2"
     inkscape:window-width="1920"
     inkscape:window-height="1017"
     id="namedview14"
     showgrid="false"
     inkscape:zoom="2.36"
     inkscape:cx="-18.855932"
     inkscape:cy="50"
     inkscape:window-x="-8"
     inkscape:window-y="-8"
     inkscape:window-maximized="1"
     inkscape:current-layer="svg12" />
  <path
     style="stroke-width:0.14814815"
     d="M 50 0 L 44.962891 5.7773438 L 38.148438 13.628906 L 36.371094 15.851562 L 44.371094 15.851562 L 44.222656 17.333984 A 294.22222 294.22222 0 0 0 43.628906 26.962891 L 43.482422 28.445312 L 44.074219 27.554688 C 45.407552 25.036169 47.630498 23.851852 50.445312 24 C 52.667535 24 54.592159 25.185402 55.777344 27.111328 L 56.517578 28 L 56.371094 26.814453 L 55.925781 20.296875 L 55.628906 17.185547 L 55.628906 15.851562 L 59.482422 15.851562 L 63.482422 15.703125 L 50 0 z M 22.226562 21.552734 C 21.851562 21.518012 21.851563 21.629774 21.851562 22.074219 L 22.148438 24.591797 L 22.296875 27.259766 L 22.591797 29.628906 L 22.740234 32.148438 L 22.888672 34.666016 L 23.185547 37.185547 L 23.333984 38.222656 L 25.408203 36 L 27.777344 33.925781 L 30.296875 36.591797 L 32.517578 39.111328 L 31.628906 41.037109 L 30.740234 42.962891 L 31.628906 42.962891 L 32.666016 43.111328 L 33.259766 43.259766 C 33.852358 43.407914 35.481916 44.444806 36.222656 45.185547 L 36.962891 45.925781 L 37.408203 45.037109 C 37.704499 44.296369 37.70421 44.147859 37.259766 43.851562 C 35.185692 41.777488 35.630208 38.074942 38.296875 36.445312 C 39.037616 35.85272 39.332682 35.851562 40.666016 35.851562 C 41.999349 35.851562 42.296369 35.852431 43.037109 36.296875 L 44.074219 37.185547 C 44.370515 37.481843 44.519314 37.481554 45.408203 37.037109 L 46.591797 36.740234 L 45.851562 36.296875 C 44.962674 35.556134 43.63057 33.630498 43.482422 32.445312 L 43.185547 31.408203 L 43.185547 30.962891 C 43.185547 30.814742 43.037616 30.815032 42.296875 31.111328 L 40.666016 31.851562 L 39.777344 32.296875 L 36.962891 29.777344 L 34.148438 27.408203 L 36.371094 25.185547 L 38.445312 22.962891 L 27.777344 21.925781 L 25.111328 21.777344 L 22.740234 21.628906 C 22.518012 21.591869 22.351562 21.564308 22.226562 21.552734 z M 78.277344 21.726562 C 78.20327 21.721933 78.111111 21.740307 78 21.777344 L 74.591797 22.074219 L 70.445312 22.371094 L 66.445312 22.666016 L 62.740234 22.962891 L 61.851562 23.111328 L 63.925781 25.333984 L 66 27.554688 C 66 27.702836 64.815466 28.889034 63.333984 30.074219 L 60.666016 32.445312 L 58.888672 31.554688 L 57.111328 30.666016 L 56.814453 32.148438 C 56.370009 33.926215 55.481481 35.407986 54 36.296875 C 53.555556 36.741319 53.555049 36.740813 54.740234 37.037109 L 55.777344 37.482422 L 56.222656 37.037109 C 58.29673 34.814887 62.44401 35.556279 63.777344 38.371094 C 64.518084 40.148872 64.222005 42.221933 62.888672 43.851562 C 62.444227 44.296007 62.443938 44.444517 62.740234 45.037109 L 63.185547 45.777344 L 64.074219 44.888672 C 65.111256 43.703487 66.740885 42.962601 68.074219 42.814453 L 69.111328 42.666016 L 67.777344 39.703125 L 70.148438 36.740234 L 72.666016 33.925781 L 74.740234 36.148438 C 75.92542 37.333623 76.96318 38.370804 77.111328 38.222656 A 446.96296 446.96296 0 0 0 78.445312 22.517578 C 78.556424 21.962023 78.499566 21.740451 78.277344 21.726562 z M 50.246094 27.025391 C 49.722946 26.999928 49.184534 27.07458 48.666016 27.259766 C 47.628979 27.852358 46.741609 28.740307 46.445312 29.777344 C 46.000868 31.258825 46.44401 32.740307 47.777344 33.777344 C 48.518084 34.369936 48.666956 34.371094 50.148438 34.371094 C 51.629919 34.371094 51.630353 34.369936 52.371094 33.777344 C 53.704427 32.740307 54.147569 31.258536 53.703125 29.628906 C 53.258681 28.073351 51.815538 27.10178 50.246094 27.025391 z M 15.628906 36.296875 L 7.7773438 42.962891 L 0.07421875 49.777344 C -0.073929398 49.925492 15.184462 63.111617 15.628906 63.259766 L 15.777344 59.408203 L 15.777344 55.408203 L 17.259766 55.554688 A 230.81481 230.81481 0 0 0 27.037109 56.148438 L 28.371094 56.296875 L 27.333984 55.554688 A 6.962963 6.962963 0 0 1 24.814453 47.554688 C 25.407046 45.925058 26.887948 44.14728 28.517578 43.554688 L 28.962891 43.408203 L 28.517578 43.408203 C 28.073134 43.408203 19.481988 43.852141 17.259766 44.148438 L 15.777344 44.148438 L 15.777344 40.296875 L 15.628906 36.296875 z M 84.222656 36.445312 L 84.074219 40.296875 L 84.074219 44.148438 L 82.591797 44.148438 A 221.48148 221.48148 0 0 0 73.111328 43.408203 L 71.925781 43.408203 L 72.814453 44 C 77.110749 47.111111 76.666811 53.036458 72.074219 55.703125 L 71.185547 56.296875 L 73.111328 56.148438 L 76.371094 55.851562 L 79.482422 55.703125 L 82.740234 55.554688 L 84.074219 55.408203 L 84.074219 59.408203 L 84.222656 63.259766 C 84.667101 63.111617 100.07422 49.925492 100.07422 49.777344 L 84.222656 36.445312 z M 59.916016 37.695312 C 59.628979 37.676794 59.333406 37.70327 59.037109 37.777344 L 57.703125 38.517578 C 57.258681 39.110171 57.111328 39.407986 57.111328 40.296875 C 57.111328 41.48206 57.110532 41.630064 57.703125 42.222656 C 58.295718 42.815249 58.591869 42.814453 59.628906 42.814453 C 60.517795 42.814453 60.963469 42.815538 61.259766 42.371094 C 62.444951 41.334057 62.592593 40.296513 62 39.111328 C 61.555556 38.222439 60.777127 37.750868 59.916016 37.695312 z M 40.482422 38.015625 C 40.065755 38.008681 39.815755 38.148872 39.482422 38.371094 C 38.149089 39.259983 37.851056 40.740596 38.591797 41.925781 C 39.480686 43.259115 40.814815 43.555483 42 42.962891 C 44.37037 41.777705 43.629557 38.222367 40.962891 38.074219 C 40.777705 38.037182 40.621311 38.01794 40.482422 38.015625 z M 50.054688 42.222656 C 49.258391 42.185619 48.591652 42.222946 48.517578 42.371094 L 48.074219 42.517578 C 47.926071 42.36943 47.332538 42.666594 46.591797 42.962891 A 7.5555556 7.5555556 0 0 0 51.925781 57.037109 C 52.666522 57.037109 54.444806 56.000506 55.185547 55.259766 C 58.000362 52.444951 58.296152 48.14851 55.925781 45.185547 C 54.888744 43.852214 53.852575 43.110171 52.371094 42.517578 C 51.778501 42.36943 50.850984 42.259693 50.054688 42.222656 z M 68.455078 45.820312 C 68.22678 45.835069 67.999566 45.870226 67.777344 45.925781 C 64.962529 46.81467 64.221716 50.66616 66.740234 52.740234 C 67.332827 53.184679 67.629268 53.333984 68.814453 53.333984 C 69.85149 53.333984 70.147931 53.333116 70.888672 52.888672 C 72.370153 51.851635 73.111834 49.778067 72.371094 48.148438 C 71.722946 46.592882 70.053168 45.717014 68.455078 45.820312 z M 30.830078 46.113281 C 30.480541 46.138744 30.147859 46.222946 29.851562 46.371094 C 28.814525 46.963686 28.369936 47.259838 27.777344 48.296875 C 27.184751 49.48206 27.333767 51.1114 28.222656 52.148438 C 29.259693 53.481771 30.741464 53.926866 32.371094 53.482422 C 35.03776 52.593533 35.925637 49.33384 33.851562 47.259766 C 33.073785 46.481988 31.878689 46.036892 30.830078 46.113281 z M 63.185547 53.777344 L 62.888672 54.666016 C 62.592376 55.406756 62.592665 55.407118 63.037109 55.851562 C 64.074146 57.036748 64.518663 58.815683 64.074219 60.445312 C 63.777922 61.48235 62.593388 62.815611 61.408203 63.408203 C 59.926722 64.148944 57.702763 63.851201 56.517578 62.666016 C 56.073134 62.221571 55.925709 62.221282 54.888672 62.517578 L 53.851562 63.111328 L 54.445312 63.703125 C 55.778646 64.740162 56.666594 66.519387 56.962891 68.445312 L 57.111328 69.185547 L 58.888672 68.445312 L 60.666016 67.554688 L 63.482422 69.925781 L 66.148438 72.445312 L 64.074219 74.666016 L 61.851562 76.740234 L 62.445312 76.888672 L 64.962891 77.185547 L 67.777344 77.482422 L 70 77.628906 L 77.554688 78.222656 L 78.591797 78.371094 L 78.445312 77.628906 A 45.185185 45.185185 0 0 1 78 72.740234 L 77.851562 70.074219 L 77.554688 67.408203 L 77.408203 64.888672 L 77.111328 62.517578 L 77.111328 62.074219 C 77.111328 61.629774 76.66645 61.925347 74.888672 63.703125 C 73.555339 65.036458 72.665726 65.925492 72.517578 65.777344 C 72.073134 65.481047 67.629196 60.445023 67.777344 60.296875 C 68.221788 59.407986 69.111328 57.481554 69.111328 57.037109 C 69.259476 56.444517 69.258608 56.445312 68.666016 56.445312 C 67.184534 56.445312 64.814381 55.407841 63.777344 54.222656 L 63.185547 53.777344 z M 36.777344 53.976562 C 36.66276 54.008681 36.53776 54.148872 36.371094 54.371094 C 35.334057 55.704427 33.555122 56.592086 31.777344 56.740234 L 30.740234 56.888672 L 31.482422 58.814453 L 32.371094 60.591797 L 30 63.259766 L 27.482422 65.925781 L 25.259766 63.703125 C 23.630136 62.073495 23.037109 61.629485 23.037109 61.925781 L 22.888672 62.666016 A 88.592593 88.592593 0 0 0 22.296875 70.074219 A 1161.1852 1161.1852 0 0 1 21.703125 78.222656 C 21.851273 78.370804 38.148727 76.888672 38.296875 76.888672 L 36.222656 74.666016 L 34.148438 72.445312 C 34.148438 72.297164 39.186126 67.703125 39.482422 67.703125 L 41.259766 68.445312 C 42.593099 69.186053 43.037399 69.185258 43.185547 69.037109 L 43.185547 68.591797 C 43.037399 68.295501 43.778501 66.222584 44.371094 65.185547 C 44.66739 64.592954 45.407118 63.999421 45.851562 63.703125 C 46.296007 63.406829 46.445023 62.962891 46.296875 62.962891 L 46.148438 62.962891 L 45.259766 62.666016 C 44.370877 62.221571 44.370515 62.221571 44.074219 62.666016 L 42.591797 63.554688 C 40.221427 64.739873 37.408131 63.704355 36.371094 61.333984 C 35.926649 60.445095 35.925781 59.999928 35.925781 58.962891 C 36.073929 57.777705 36.667462 56.444155 37.408203 55.851562 C 37.704499 55.555266 37.704499 55.555194 37.408203 54.814453 C 37.130425 54.166305 36.968316 53.923032 36.777344 53.976562 z M 59.833984 56.277344 C 59.408058 56.258825 58.963831 56.369575 58.445312 56.591797 C 57.260127 57.036241 56.519314 59.11169 57.408203 60.296875 C 57.704499 60.741319 58.443938 61.333984 58.740234 61.333984 L 58.888672 61.482422 C 59.184968 61.63057 60.221861 61.629991 60.814453 61.185547 C 62.740379 60.296658 62.740958 57.92542 61.111328 56.740234 C 60.666884 56.443938 60.25991 56.295862 59.833984 56.277344 z M 40.574219 56.445312 C 40.259404 56.445312 39.926577 56.592376 39.333984 56.888672 C 37.556207 57.629413 37.407769 60.148799 39.185547 61.333984 C 39.481843 61.630281 40.073134 61.777344 40.517578 61.777344 C 43.332393 61.777344 44.221644 58.073857 41.703125 56.888672 C 41.184606 56.592376 40.889034 56.445312 40.574219 56.445312 z M 50.132812 65.273438 C 49.532118 65.241319 48.962023 65.351128 48.517578 65.628906 C 46.591652 66.517795 45.851056 68.591652 46.591797 70.517578 C 47.776982 73.036097 51.036965 73.628762 52.962891 71.554688 C 54.148076 70.073206 54.148076 67.850911 52.962891 66.517578 C 52.22215 65.776837 51.13397 65.326968 50.132812 65.273438 z M 43.482422 71.408203 L 43.628906 73.037109 A 916.59259 916.59259 0 0 1 44.222656 82.666016 L 44.371094 84.148438 L 36.371094 84.148438 L 39.333984 87.554688 L 46 95.554688 L 50 100 L 55.037109 94.222656 L 61.851562 86.371094 L 63.628906 84.148438 L 55.628906 84.148438 L 55.628906 82.666016 L 56.074219 76.148438 L 56.371094 73.037109 C 56.371094 72.296369 56.370804 72.000289 56.222656 72.148438 C 56.074508 72.74103 54.740741 74.073423 54 74.666016 A 6.6666667 6.6666667 0 0 1 46.296875 74.666016 C 45.259838 73.925275 44.666811 73.48206 44.074219 72.296875 L 43.482422 71.408203 z "
     transform="matrix(6.75,0,0,6.75,-62.5,-50)"
     id="path2" />
</svg>
