<?xml version="1.0" encoding="UTF-8" standalone="no"?>
<svg id="svg2" xmlns:rdf="http://www.w3.org/1999/02/22-rdf-syntax-ns#" xmlns="http://www.w3.org/2000/svg" height="100px" width="100px" version="1.0" preserveAspectRatio="xMidYMid meet" xmlns:cc="http://creativecommons.org/ns#" xmlns:dc="http://purl.org/dc/elements/1.1/" viewBox="25.0 -50.0 500.0 675.0">
 <metadata id="metadata44">
  <rdf:RDF>
   <cc:Work rdf:about="">
    <dc:format>image/svg+xml</dc:format>
    <dc:type rdf:resource="http://purl.org/dc/dcmitype/StillImage"/>
    <dc:title/>
   </cc:Work>
  </rdf:RDF>
 </metadata>
 <g id="g4" transform="matrix(.13560 0 0 -.13554 -64.127 626.36)">
  <path id="path6" d="m2249 4703c-134-158-286-336-337-395l-92-108h201 200l-5-75c-8-98-14-198-21-315-3-52-8-126-11-165l-4-70 26 45c69 120 178 181 317 176 111-4 207-59 269-155l30-46-6 60c-5 56-9 123-22 325-2 47-7 115-10 153l-6 67h196c108 0 196 2 196 5 0 9-663 785-670 785-4 0-117-129-251-287z"/>
  <path id="path8" d="m1103 3893c3-15 9-73 12-128s8-116 10-135 6-71 10-115c3-44 8-100 10-125s7-81 10-125 8-102 11-129l6-48 107 106c58 58 111 106 116 105 6 0 61-59 123-130l113-129-45-92c-25-51-44-93-43-94s20-3 42-5c22-1 45-5 50-8 6-3 19-7 29-8 36-6 117-57 152-96 20-21 37-37 38-35 1 1 9 22 18 45 15 40 15 42-6 62-105 99-80 286 49 366 43 27 57 30 124 30 65 0 82-4 116-26 22-15 46-33 53-41 11-14 19-13 67 5l55 20-34 23c-45 31-112 133-122 186-4 24-9 46-10 51-1 4-2 14-3 22-1 12-6 12-43-1-23-8-61-25-85-39l-43-24-139 123-139 123 109 109c59 59 107 109 105 111-3 3-107 12-531 48-33 2-94 7-135 10s-95 8-118 11c-44 5-44 5-39-23z"/>
  <path id="path10" d="m3727 3893c-78-6-171-14-207-17s-126-10-200-16c-74-5-157-13-184-16l-48-6 106-107c58-58 106-111 105-116 0-6-61-62-134-126l-134-117-88 44-88 45-16-70c-21-93-66-163-137-212-22-16-22-16 32-36l55-20 21 22c104 111 310 74 376-69 41-88 26-188-40-267-23-27-23-29-8-63l16-35 44 44c54 55 137 97 203 103 27 2 49 6 49 8 0 4-57 126-67 145-2 4 52 70 120 147l124 140 109-109c59-59 110-107 112-105 3 4 44 476 56 661 4 50 9 107 12 127 5 36 4 38-20 35-15-1-90-7-169-14z"/>
  <path id="path12" d="m2435 3630c-53-24-93-68-109-121-23-77 1-149 68-203 35-28 44-31 111-31s76 3 111 31c67 54 91 126 68 205-31 106-149 162-249 119z"/>
  <path id="path14" d="m400 2850c-212-181-386-333-388-338-2-7 758-662 780-670 4-2 8 85 8 193v197l68-6c68-6 149-11 322-21 52-3 127-8 165-11l70-5-53 36c-123 84-177 252-127 395 30 84 108 168 187 200l23 9h-22c-25 1-448-25-560-34l-73-6v195c0 108-3 196-7 195-5 0-181-149-393-329z"/>
  <path id="path16" d="m4200 2985v-196l-75 5c-95 8-193 14-320 21-55 3-125 8-155 11l-55 6 40-30c214-155 196-452-35-587l-45-26 95 6c52 3 124 8 160 10s108 7 160 10 125 8 163 11l67 6v-197c0-108 4-195 8-193 16 6 782 661 782 668s-766 662-782 668c-4 2-8-85-8-193z"/>
  <path id="path18" d="m2949 3108c-20-5-50-23-65-39-25-26-29-38-29-89 0-54 3-63 33-92 29-30 38-33 91-33 49 0 64 4 86 25 52 48 62 103 31 163-30 57-84 80-147 65z"/>
  <path id="path20" d="m1975 3081c-64-43-82-123-42-181 42-63 108-81 173-47 116 60 78 233-53 244-37 3-55-1-78-16z"/>
  <path id="path22" d="m2425 2880c-3-5-11-7-19-4-7 3-40-9-73-26-283-145-282-533 2-679 22-11 56-23 75-27 45-9 142-12 155-5 6 3 19 7 30 8 39 6 126 55 164 94 139 137 155 350 37 500-51 65-103 102-179 129-59 21-181 28-192 10z"/>
  <path id="path24" d="m3388 2700c-145-44-177-235-55-334 31-25 47-30 101-32 55-3 69 1 108 25 76 49 109 152 74 235-35 84-140 133-228 106z"/>
  <path id="path26" d="m1495 2679c-51-25-73-46-97-93-30-59-22-143 18-193 54-66 127-90 204-67 138 43 180 206 79 310-53 55-141 73-204 43z"/>
  <path id="path28" d="m3157 2313c-2-4-10-25-16-45-11-34-10-40 10-60 53-56 72-147 48-231-13-50-71-112-129-142-77-39-185-24-248 36-21 19-23 19-76 2-31-10-56-21-56-24 0-4 16-19 35-35 64-50 110-137 121-229 3-22 7-41 8-42 1-2 42 17 90 41l88 44 138-123 138-122-109-109-109-109 30-6c16-4 73-9 127-13s116-8 138-11c22-2 72-7 110-9 120-9 328-26 378-31l48-5-5 37c-3 21-8 81-11 133-4 52-8 102-10 110s-7 67-10 130c-4 63-9 122-10 130-2 8-6 65-11 125-4 61-9 113-10 118-1 4-2 17-3 29-1 19-20 3-110-86-64-64-113-106-120-102-19 12-242 269-238 275 22 42 67 142 72 163 6 24 4 27-22 26-75-2-195 52-243 110-15 18-30 30-33 25z"/>
  <path id="path30" d="m1822 2279c-49-61-143-108-231-116-25-2-47-6-49-8s15-44 38-93l42-91-117-130c-64-72-120-131-123-131-4 0-55 48-114 107-80 80-108 103-109 88 0-11-2-27-4-36-1-9-6-63-10-120-3-57-8-115-10-129s-7-68-10-120c-4-52-13-165-20-250-8-85-13-156-12-156 4-4 819 65 823 68 2 2-44 51-101 108-58 58-105 108-105 112 0 8 256 238 265 238 3 0 45-18 92-41 66-31 88-38 94-28 4 7 6 16 3 21-10 15 25 120 57 170 18 28 50 63 71 78 22 16 34 31 28 35-5 3-10 4-10 1s-20 3-44 14c-44 18-44 18-63-2-10-12-40-31-68-44-120-56-258-6-312 113-21 45-24 66-21 117 5 61 33 123 71 154 14 12 14 17 0 50-21 52-25 53-51 21z"/>
  <path id="path32" d="m2923 2175c-64-28-95-129-56-185 17-25 51-54 66-56 4-1 8-2 10-4 14-12 64-7 97 10 92 47 98 168 11 227-38 26-81 29-128 8z"/>
  <path id="path34" d="m1972 2160c-94-43-101-168-13-227 19-13 49-23 68-23 139 0 184 189 59 250-52 25-60 25-114 0z"/>
  <path id="path36" d="m2425 1724c-93-48-132-152-92-244 55-128 221-156 313-52 61 70 61 186 1 250-54 58-158 80-222 46z"/>
  <path id="path38" d="m2184 1355c3-44 8-118 11-165 13-208 16-249 21-317l5-73h-200-201l148-172c81-95 232-273 336-395 103-123 191-223 195-223s117 129 252 287c134 158 286 336 337 395l92 108h-201-200l5 75c7 91 13 187 21 320 3 55 8 127 10 160 3 33 2 53-2 45-12-31-76-101-116-128-118-81-266-81-382-2-51 35-77 64-110 120l-26 45 5-80z"/>
 </g>
</svg>
